<?xml version="1.0" standalone="no"?>
<!DOCTYPE svg PUBLIC "-//W3C//DTD SVG 20010904//EN"
 "http://www.w3.org/TR/2001/REC-SVG-20010904/DTD/svg10.dtd">
<svg version="1.0" xmlns="http://www.w3.org/2000/svg"
 width="395.000000pt" height="100.000000pt" viewBox="0 0 395.000000 100.000000"
 preserveAspectRatio="xMidYMid meet">

<g transform="translate(0.000000,100.000000) scale(0.100000,-0.100000)"
fill="#000000" stroke="none">
<path d="M0 990 c0 -6 44 -10 113 -10 l112 -1 26 -42 c14 -23 70 -113 124
-199 53 -87 100 -158 104 -158 3 0 62 90 130 200 l123 200 109 0 109 0 0 -475
0 -475 -100 0 -100 0 -2 308 -3 307 -130 -197 c-71 -109 -133 -198 -137 -198
-4 0 -65 88 -136 195 -70 108 -131 192 -135 189 -4 -4 -7 -142 -7 -306 l0
-298 -100 0 c-82 0 -100 -3 -100 -15 0 -13 226 -15 1975 -15 l1975 0 -1 143
c-1 104 -3 131 -9 100 -24 -118 -120 -199 -267 -224 -138 -23 -337 30 -442
119 l-33 28 57 67 c31 37 60 67 65 67 5 0 30 -14 55 -31 121 -82 278 -99 343
-39 28 26 30 89 4 113 -25 23 -83 46 -187 74 -221 59 -299 132 -297 278 1 80
18 135 54 180 105 127 316 152 513 60 118 -55 116 -51 64 -130 -24 -38 -47
-73 -51 -78 -3 -6 -23 0 -50 15 -167 97 -328 86 -328 -22 0 -51 28 -73 135
-105 276 -82 336 -121 364 -242 6 -25 9 75 10 295 l1 332 -1975 0 c-1310 0
-1975 -3 -1975 -10z m1860 -105 l0 -95 -255 0 -255 0 0 -95 c0 -69 3 -95 13
-95 6 0 108 -1 225 -1 l212 0 0 -94 0 -95 -225 0 -225 0 0 -100 0 -100 260 0
260 0 0 -90 0 -90 -360 0 -360 0 0 475 0 475 355 0 355 0 0 -95z"/>
</g>
</svg>
