<?xml version="1.0" standalone="no"?>
<!DOCTYPE svg PUBLIC "-//W3C//DTD SVG 20010904//EN"
 "http://www.w3.org/TR/2001/REC-SVG-20010904/DTD/svg10.dtd">
<svg version="1.0" xmlns="http://www.w3.org/2000/svg"
 width="154.000000pt" height="150.000000pt" viewBox="0 0 154.000000 150.000000"
 preserveAspectRatio="xMidYMid meet">

<g transform="translate(0.000000,150.000000) scale(0.100000,-0.100000)"
fill="#FFFFFF" stroke="none">
<path d="M900 1319 c100 -99 150 -184 180 -310 41 -171 21 -317 -60 -454 -40
-67 -126 -165 -145 -165 -7 0 -21 34 -34 86 -37 145 -80 204 -194 265 -130 68
-187 123 -187 180 0 50 11 54 99 40 72 -12 84 -12 106 3 29 19 33 62 11 104
-8 15 -18 40 -21 56 -4 17 -22 45 -42 63 -31 30 -34 36 -25 61 8 24 7 31 -8
40 -10 6 -20 22 -22 34 -4 31 -26 28 -94 -13 -132 -80 -243 -213 -291 -349
-20 -58 -27 -100 -31 -185 -8 -215 44 -352 187 -496 106 -106 209 -161 341
-185 334 -59 652 133 752 456 34 111 32 274 -5 385 -51 153 -156 289 -281 364
-70 42 -197 88 -268 97 l-53 7 85 -84z"/>
</g>
</svg>
